<?xml version="1.0" encoding="UTF-8"?>
<svg width="300" height="418.12" version="1.1" xmlns="http://www.w3.org/2000/svg">
 <g fill="#c00">
  <path d="m0.060396 149.98c0-82.844 67.132-149.98 149.96-149.98 82.826 0 149.98 67.132 149.98 149.98 0 82.793-67.151 149.96-149.98 149.96-82.826 0-149.96-67.165-149.96-149.96zm149.93 99.95c55.206 0 99.96-44.763 99.96-99.955 0-55.216-44.753-99.978-99.96-99.978-55.202 0-99.955 44.758-99.955 99.978 0 55.192 44.758 99.955 99.955 99.955zm49.98-99.96c0 27.601-22.374 49.98-49.98 49.98-27.606 0-49.975-22.379-49.975-49.98 0-27.601 22.374-49.98 49.98-49.98 27.606 0 49.975 22.379 49.975 49.98z"/>
  <path d="m25.938 319.38v17.631h11.833v10.806h-11.833v29.125c0 5.4588 1.3659 6.8247 6.8247 6.8247 1.8212 0 3.6423-0.11144 5.0082-0.45529v12.627c-2.7318 0.45527-6.3694 0.56678-9.5565 0.56678-12.4 0-18.43-3.7538-18.43-14.221v-34.467h-9.7841v-10.806h9.7841v-17.631zm70.073 61.088c0 3.8653 0.68294 4.6644 4.0976 4.6644h0.45529v10.467c-1.4774 0.68294-3.2985 1.3659-6.7132 1.3659-7.5077 0-11.373-2.2765-12.627-7.6238-3.8653 4.6644-10.695 8.0744-20.474 8.0744-12.061 0-20.024-6.2579-20.024-17.631 0-5.6865 1.8212-9.668 5.1197-12.511 3.7538-3.187 9.2127-4.8921 18.997-5.9141 10.467-1.1382 15.015-2.0488 15.015-7.28 0-6.7132-4.8921-7.8514-10.351-7.8514-6.7132 0-10.239 2.7318-10.806 8.8735h-16.154c0.68294-12.855 11.261-19.68 27.759-19.68 17.18 0 25.71 5.8026 25.71 16.72v28.326zm-29.232 6.1418c8.6459 0 13.083-4.6644 13.083-13.31v-6.2579c-1.4774 1.3659-4.3206 2.1603-9.7841 2.8432-8.3067 1.0221-13.199 2.8432-13.199 9.2127 0 4.669 2.8432 7.5123 9.9003 7.5123zm75.653-50.621v15.015a27.935 27.935 0 0 0-5.8026-0.5668c-11.717 0-15.926 8.0745-15.926 18.885v26.504h-16.154v-58.816h15.359v10.922h0.22765c3.0709-7.3962 10.695-12.511 18.769-12.511 1.5935-5e-3 2.7271 0.33914 3.5262 0.56678zm42.774 8.8735h0.22765v-7.8514h15.359v55.174c0 15.243-8.8736 25.938-30.374 25.938-13.649 0-25.366-6.9409-26.049-18.885h16.042c1.3659 5.6865 5.8026 8.0791 12.056 8.0791 8.3068 0 12.971-5.2312 12.971-14.221v-8.0744h-0.22766c-3.1824 5.6865-9.668 9.1012-17.631 9.1012-16.953 0-25.143-12.4-25.143-29.575 0-15.015 8.7574-29.125 25.255-29.125 8.4136-5e-3 13.872 3.1824 17.515 9.4403zm-13.538 37.083c8.7574 0 13.766-7.1685 13.766-16.381 0-8.1906-2.5041-17.975-13.877-17.975-8.3021 0-12.967 7.0524-12.967 16.72-5e-3 9.5611 3.7492 17.636 13.078 17.636zm92.262-14.56c0 0.91058-0.11144 2.9594-0.11144 2.9594h-42.43c0.45529 10.123 5.1197 14.904 14.332 14.904 6.1418 0 11.605-3.5262 12.855-7.6238h14.221c-4.3253 13.31-13.426 19.796-27.531 19.796-18.658 0-30.031-12.855-30.031-30.941 0-17.747 12.284-31.057 30.031-31.057 18.542-5e-3 28.665 14.56 28.665 31.963zm-16.265-7.28c-1.5935-8.8735-5.4589-12.511-12.971-12.511-7.8515 0-12.627 4.7806-13.31 12.511zm40.502-40.725v17.631h11.833v10.806h-11.833v29.125c0 5.4588 1.3659 6.8247 6.8247 6.8247 1.8212 0 3.6423-0.11144 5.0082-0.45529v12.627c-2.7318 0.45527-6.3694 0.56678-9.5565 0.56678-12.4 0-18.43-3.7538-18.43-14.221v-34.467h-9.7841v-10.806h9.7841v-17.631z"/>
 </g>
</svg>
